<?xml version="1.0" encoding="UTF-8"?>
<svg xmlns="http://www.w3.org/2000/svg" xmlns:xlink="http://www.w3.org/1999/xlink" viewBox="0 0 48 48" version="1.1" width="48px" height="48px">
<g id="surface1">
<path style=" fill:#78909C;" d="M 6 11 C 6 8.789063 7.789063 7 10 7 L 37 7 C 39.210938 7 41 8.789063 41 11 L 41 38 C 41 40.210938 39.210938 42 37 42 L 10 42 C 7.789063 42 6 40.210938 6 38 Z "/>
<path style=" fill:#455A64;" d="M 41 11 C 41 8.789063 39.210938 7 37 7 L 36.886719 7 L 29.578125 13.746094 L 26.414063 10.585938 L 25 9.171875 L 23.589844 10.585938 L 20.585938 13.585938 L 19.261719 14.90625 L 20.496094 16.316406 L 28.808594 25.816406 L 30.3125 24.511719 L 41 15.246094 Z "/>
<path style=" fill:#FFFFFF;" d="M 16.636719 35.191406 C 16.636719 34.710938 16.460938 34.335938 16.113281 34.066406 C 15.765625 33.800781 15.152344 33.523438 14.277344 33.234375 C 13.402344 32.945313 12.6875 32.671875 12.132813 32.402344 C 10.324219 31.535156 9.421875 30.34375 9.421875 28.828125 C 9.421875 28.070313 9.644531 27.40625 10.097656 26.828125 C 10.546875 26.25 11.183594 25.800781 12.007813 25.480469 C 12.832031 25.160156 13.757813 25 14.785156 25 C 15.789063 25 16.6875 25.175781 17.484375 25.523438 C 18.28125 25.871094 18.898438 26.371094 19.339844 27.015625 C 19.777344 27.660156 20 28.171875 20 29 L 16.644531 29 C 16.644531 28.445313 16.472656 28.242188 16.125 27.9375 C 15.777344 27.632813 15.304688 27.480469 14.710938 27.480469 C 14.109375 27.480469 13.636719 27.609375 13.289063 27.867188 C 12.941406 28.128906 12.765625 28.457031 12.765625 28.855469 C 12.765625 29.203125 12.957031 29.523438 13.339844 29.804688 C 13.722656 30.089844 14.398438 30.382813 15.363281 30.683594 C 16.328125 30.988281 17.121094 31.3125 17.738281 31.664063 C 19.246094 32.511719 20 33.683594 20 35.171875 C 20 36.363281 19.539063 37.300781 18.621094 37.980469 C 17.699219 38.660156 16.4375 39 14.835938 39 C 13.703125 39 12.679688 38.800781 11.765625 38.40625 C 10.847656 38.011719 10.15625 37.46875 9.695313 36.777344 C 9.230469 36.085938 9 34.898438 9 34 L 12.371094 34 C 12.371094 34.730469 12.566406 35.664063 12.949219 36.011719 C 13.335938 36.355469 13.964844 36.53125 14.835938 36.53125 C 15.390625 36.53125 15.828125 36.414063 16.152344 36.179688 C 16.476563 35.945313 16.636719 35.613281 16.636719 35.191406 Z "/>
<path style=" fill:#FFFFFF;" d="M 26.949219 39 C 25.472656 39 24.277344 38.558594 23.367188 37.675781 C 22.457031 36.792969 22 35.648438 22 34.234375 L 22 33.984375 C 22 32.996094 22.179688 32.128906 22.546875 31.371094 C 22.910156 30.617188 23.441406 30.03125 24.140625 29.621094 C 24.839844 29.207031 25.667969 29 26.628906 29 C 27.980469 29 29.046875 29.421875 29.828125 30.261719 C 30.609375 31.101563 31 32.273438 31 33.777344 L 31 35 L 25.046875 35 C 25.152344 35.539063 25.386719 35.910156 25.75 36.21875 C 26.109375 36.527344 26.578125 36.683594 27.152344 36.683594 C 28.097656 36.683594 28.839844 36.351563 29.375 35.683594 L 30.742188 37.304688 C 30.367188 37.824219 29.839844 38.234375 29.15625 38.539063 C 28.472656 38.847656 27.738281 39 26.949219 39 Z M 26.609375 31.316406 C 25.734375 31.316406 25.214844 31.835938 25.046875 33 L 28.070313 33 L 28.070313 32.832031 C 28.082031 32.351563 27.960938 31.976563 27.703125 31.714844 C 27.449219 31.449219 27.085938 31.316406 26.609375 31.316406 Z "/>
<path style=" fill:#66BB6A;" d="M 22 15 L 25.003906 12 L 29.523438 16.519531 L 42 5 L 44 10 L 29.003906 23 Z "/>
</g>
</svg>
