<?xml version="1.0" encoding="UTF-8"?>
<svg xmlns="http://www.w3.org/2000/svg" xmlns:xlink="http://www.w3.org/1999/xlink" viewBox="0 0 48 48" version="1.1" width="48px" height="48px">
<g id="surface1">
<path style=" fill:#AFB42B;" d="M 6 25 C 6 25 10.207031 27 24 27 C 37.792969 27 42 25 42 25 L 42 21 L 6 21 Z "/>
<path style=" fill:#FFCC80;" d="M 40 25 C 41.6875 25.625 42 27 42 27 C 42 31.1875 40.6875 32.679688 40 33 C 39.0625 33.4375 36 34 36 34 L 37 22 L 40 22 Z M 8 25 C 6.3125 25.625 6 27 6 27 C 6 31.1875 7.3125 32.679688 8 33 C 8.9375 33.4375 12 34 12 34 L 11 22 L 8 22 Z "/>
<path style=" fill:#FFE0B2;" d="M 39 28 C 39 18.609375 32.285156 11 24 11 C 15.714844 11 9 18.609375 9 28 C 9 37.390625 15.714844 45 24 45 C 32.285156 45 39 37.390625 39 28 Z "/>
<path style=" fill:#FFB74D;" d="M 28 39 C 28 37.34375 26.210938 36 24 36 C 21.789063 36 20 37.34375 20 39 C 20 40.65625 21.789063 42 24 42 C 26.210938 42 28 40.65625 28 39 Z "/>
<path style=" fill:#BCAAA4;" d="M 40 22 L 38 31 L 35 33 L 28 31 L 26 27 L 22 27 L 20 31 L 13 33 L 10 31 L 8 22 C 8 22 14.375 20 24 20 C 33.625 20 40 22 40 22 Z "/>
<path style=" fill:#263238;" d="M 34 28.890625 C 33.421875 28.597656 32.785156 28.96875 31.632813 28.992188 C 30.769531 29.023438 30.050781 29.03125 30.003906 27.617188 C 29.957031 26.203125 30.503906 25.03125 31.363281 25 C 32.222656 24.96875 33.007813 26.089844 33.113281 27.503906 C 33.144531 27.894531 33.101563 28.175781 33.011719 28.386719 C 33.808594 28.289063 33.992188 28.855469 34 28.890625 Z M 19 27.722656 C 19.011719 29.09375 18.285156 29.011719 17.410156 29.019531 C 17.320313 29.023438 17.238281 29.023438 17.15625 29.023438 C 17.058594 29.027344 16.964844 29.027344 16.871094 29.027344 C 16.023438 29.023438 15.480469 28.988281 15 29.246094 C 15.011719 29.214844 15.222656 28.746094 15.984375 28.554688 C 15.902344 28.367188 15.847656 28.109375 15.835938 27.753906 C 15.78125 26.378906 16.628906 25.007813 17.503906 25 C 18.378906 24.992188 18.988281 26.101563 19 27.476563 Z "/>
<path style=" fill:#FFFFFF;" d="M 18 26.5 C 18 26.777344 17.777344 27 17.5 27 C 17.222656 27 17 26.777344 17 26.5 C 17 26.222656 17.222656 26 17.5 26 C 17.777344 26 18 26.222656 18 26.5 Z M 31.5 26 C 31.222656 26 31 26.222656 31 26.5 C 31 26.777344 31.222656 27 31.5 27 C 31.777344 27 32 26.777344 32 26.5 C 32 26.222656 31.777344 26 31.5 26 Z "/>
<path style=" fill:#546E7A;" d="M 39.75 23.601563 C 39.480469 23.515625 34.75 21 24 21 C 13.25 21 8.519531 23.515625 8.25 23.601563 L 7.375 23.875 L 9.109375 31.609375 L 12.828125 34.089844 L 20.695313 31.839844 L 22.617188 28 L 25.382813 28 L 27.304688 31.839844 L 35.171875 34.089844 L 38.890625 31.609375 L 40.625 23.875 Z M 37.109375 30.390625 L 34.828125 31.910156 L 28.695313 30.160156 L 26.617188 26 L 21.382813 26 L 19.304688 30.160156 L 13.171875 31.910156 L 10.890625 30.390625 L 9.734375 25.265625 C 11.78125 24.742188 15.125 23 24 23 C 32.875 23 36.21875 24.742188 38.265625 25.265625 Z "/>
<path style=" fill:#D4E157;" d="M 8 19 C 8 10.164063 15.164063 3 24 3 C 32.835938 3 40 10.164063 40 19 C 40 19 31.835938 17 23 17 C 14.164063 17 8 19 8 19 Z "/>
<path style=" fill:#D4E157;" d="M 43 17 C 43 17 38.214844 13 24 13 C 9.785156 13 5 17 5 17 C 5 22.214844 6 25 6 25 C 6 25 9.804688 21 24 21 C 38.195313 21 42 25 42 25 C 42 25 43 21.964844 43 17 Z "/>
<path style=" fill:#BF360C;" d="M 40 34 L 37 39 C 36.6875 39.46875 36.21875 39.8125 35.675781 39.964844 L 30.648438 41.910156 C 29.9375 42.113281 29.167969 41.972656 28.574219 41.523438 L 24 39 L 19.429688 41.523438 C 18.835938 41.972656 18.066406 42.113281 17.351563 41.910156 L 12.324219 39.964844 C 11.78125 39.8125 11.3125 39.46875 11 39 L 8 34 L 12 36 L 16 36 L 21.152344 32.894531 C 21.535156 34.113281 22.65625 35 24 35 C 25.328125 35 26.445313 34.128906 26.839844 32.929688 L 32 36 L 36 36 Z M 26.757813 21.054688 C 25.882813 21.019531 24.96875 21 24 21 C 14.058594 21 9.21875 22.960938 7.207031 24.136719 C 6.488281 25.261719 3.652344 29.769531 3 32 C 7.03125 26.230469 14.585938 22.925781 18.105469 21.636719 C 16.945313 22.484375 14.859375 24.097656 13 26 C 16.6875 23.445313 25.21875 21.410156 26.757813 21.054688 Z M 28.152344 21.128906 C 27.230469 22.175781 25.527344 23.691406 22 26 C 27.960938 25.820313 34.359375 22.355469 34.941406 22.03125 C 33.125 21.628906 30.886719 21.296875 28.152344 21.128906 Z "/>
<path style=" fill:#BF360C;" d="M 20 8 L 20 11 L 22 11 L 22 10 L 23 10 L 23 15 L 22 15 L 22 17 L 26 17 L 26 15 L 25 15 L 25 10 L 26 10 L 26 11 L 28 11 L 28 8 Z "/>
<path style=" fill:#AFB42B;" d="M 39.53125 15.253906 C 39.355469 14.53125 39.144531 13.824219 38.878906 13.140625 C 37.527344 12.679688 36.042969 12.070313 33 11.632813 L 33 17.511719 C 31.164063 17.332031 27.378906 17 24 17 C 20.621094 17 16.835938 17.332031 15 17.515625 L 15 11.660156 C 12.695313 12.070313 10.429688 12.726563 9.113281 13.171875 C 8.847656 13.84375 8.644531 14.539063 8.46875 15.253906 C 9.632813 14.820313 11.128906 14.378906 13 13.996094 L 13 20 C 15.773438 19.414063 19.371094 19 24 19 C 28.628906 19 32.226563 19.414063 35 20 L 35 13.996094 C 36.867188 14.378906 38.367188 14.820313 39.53125 15.253906 Z "/>
</g>
</svg>
